<svg width="610" height="72" viewBox="0 0 610 72" fill="none" xmlns="http://www.w3.org/2000/svg">
<path d="M26.5879 33.032H22.1719V53H13.9639V33.032H10.9879V26.216H13.9639V25.448C13.9639 22.152 14.9079 19.656 16.7959 17.96C18.6839 16.232 21.4519 15.368 25.0999 15.368C25.7079 15.368 26.1559 15.384 26.4439 15.416V22.376C24.8759 22.28 23.7719 22.504 23.1319 23.048C22.4919 23.592 22.1719 24.568 22.1719 25.976V26.216H26.5879V33.032ZM28.8128 39.56C28.8128 36.808 29.3248 34.392 30.3488 32.312C31.4048 30.232 32.8288 28.632 34.6208 27.512C36.4128 26.392 38.4128 25.832 40.6208 25.832C42.5088 25.832 44.1568 26.216 45.5648 26.984C47.0048 27.752 48.1088 28.76 48.8768 30.008V26.216H57.0848V53H48.8768V49.208C48.0768 50.456 46.9568 51.464 45.5168 52.232C44.1088 53 42.4608 53.384 40.5728 53.384C38.3968 53.384 36.4128 52.824 34.6208 51.704C32.8288 50.552 31.4048 48.936 30.3488 46.856C29.3248 44.744 28.8128 42.312 28.8128 39.56ZM48.8768 39.608C48.8768 37.56 48.3008 35.944 47.1488 34.76C46.0288 33.576 44.6528 32.984 43.0208 32.984C41.3888 32.984 39.9968 33.576 38.8448 34.76C37.7248 35.912 37.1648 37.512 37.1648 39.56C37.1648 41.608 37.7248 43.24 38.8448 44.456C39.9968 45.64 41.3888 46.232 43.0208 46.232C44.6528 46.232 46.0288 45.64 47.1488 44.456C48.3008 43.272 48.8768 41.656 48.8768 39.608ZM61.3909 39.608C61.3909 36.824 61.9509 34.392 63.0709 32.312C64.2229 30.232 65.8069 28.632 67.8229 27.512C69.8709 26.392 72.2069 25.832 74.8309 25.832C78.1909 25.832 80.9909 26.712 83.2309 28.472C85.5029 30.232 86.9909 32.712 87.6949 35.912H78.9589C78.2229 33.864 76.7989 32.84 74.6869 32.84C73.1829 32.84 71.9829 33.432 71.0869 34.616C70.1909 35.768 69.7429 37.432 69.7429 39.608C69.7429 41.784 70.1909 43.464 71.0869 44.648C71.9829 45.8 73.1829 46.376 74.6869 46.376C76.7989 46.376 78.2229 45.352 78.9589 43.304H87.6949C86.9909 46.44 85.5029 48.904 83.2309 50.696C80.9589 52.488 78.1589 53.384 74.8309 53.384C72.2069 53.384 69.8709 52.824 67.8229 51.704C65.8069 50.584 64.2229 48.984 63.0709 46.904C61.9509 44.824 61.3909 42.392 61.3909 39.608ZM117.333 39.176C117.333 39.944 117.285 40.744 117.189 41.576H98.6134C98.7414 43.24 99.2694 44.52 100.197 45.416C101.157 46.28 102.325 46.712 103.701 46.712C105.749 46.712 107.173 45.848 107.973 44.12H116.709C116.261 45.88 115.445 47.464 114.261 48.872C113.109 50.28 111.653 51.384 109.893 52.184C108.133 52.984 106.165 53.384 103.989 53.384C101.365 53.384 99.0294 52.824 96.9814 51.704C94.9334 50.584 93.3334 48.984 92.1814 46.904C91.0294 44.824 90.4534 42.392 90.4534 39.608C90.4534 36.824 91.0134 34.392 92.1334 32.312C93.2854 30.232 94.8854 28.632 96.9334 27.512C98.9814 26.392 101.333 25.832 103.989 25.832C106.581 25.832 108.885 26.376 110.901 27.464C112.917 28.552 114.485 30.104 115.605 32.12C116.757 34.136 117.333 36.488 117.333 39.176ZM108.933 37.016C108.933 35.608 108.453 34.488 107.493 33.656C106.533 32.824 105.333 32.408 103.893 32.408C102.517 32.408 101.349 32.808 100.389 33.608C99.4614 34.408 98.8854 35.544 98.6614 37.016H108.933ZM129.872 30.008C130.64 28.76 131.744 27.752 133.184 26.984C134.624 26.216 136.272 25.832 138.128 25.832C140.336 25.832 142.336 26.392 144.128 27.512C145.92 28.632 147.328 30.232 148.352 32.312C149.408 34.392 149.936 36.808 149.936 39.56C149.936 42.312 149.408 44.744 148.352 46.856C147.328 48.936 145.92 50.552 144.128 51.704C142.336 52.824 140.336 53.384 138.128 53.384C136.24 53.384 134.592 53.016 133.184 52.28C131.776 51.512 130.672 50.504 129.872 49.256V53H121.664V17.48H129.872V30.008ZM141.584 39.56C141.584 37.512 141.008 35.912 139.856 34.76C138.736 33.576 137.344 32.984 135.68 32.984C134.048 32.984 132.656 33.576 131.504 34.76C130.384 35.944 129.824 37.56 129.824 39.608C129.824 41.656 130.384 43.272 131.504 44.456C132.656 45.64 134.048 46.232 135.68 46.232C137.312 46.232 138.704 45.64 139.856 44.456C141.008 43.24 141.584 41.608 141.584 39.56ZM166.434 53.384C163.81 53.384 161.442 52.824 159.33 51.704C157.25 50.584 155.602 48.984 154.386 46.904C153.202 44.824 152.61 42.392 152.61 39.608C152.61 36.856 153.218 34.44 154.434 32.36C155.65 30.248 157.314 28.632 159.426 27.512C161.538 26.392 163.906 25.832 166.53 25.832C169.154 25.832 171.522 26.392 173.634 27.512C175.746 28.632 177.41 30.248 178.626 32.36C179.842 34.44 180.45 36.856 180.45 39.608C180.45 42.36 179.826 44.792 178.578 46.904C177.362 48.984 175.682 50.584 173.538 51.704C171.426 52.824 169.058 53.384 166.434 53.384ZM166.434 46.28C168.002 46.28 169.33 45.704 170.418 44.552C171.538 43.4 172.098 41.752 172.098 39.608C172.098 37.464 171.554 35.816 170.466 34.664C169.41 33.512 168.098 32.936 166.53 32.936C164.93 32.936 163.602 33.512 162.546 34.664C161.49 35.784 160.962 37.432 160.962 39.608C160.962 41.752 161.474 43.4 162.498 44.552C163.554 45.704 164.866 46.28 166.434 46.28ZM196.996 53.384C194.372 53.384 192.004 52.824 189.892 51.704C187.812 50.584 186.164 48.984 184.948 46.904C183.764 44.824 183.172 42.392 183.172 39.608C183.172 36.856 183.78 34.44 184.996 32.36C186.212 30.248 187.876 28.632 189.988 27.512C192.1 26.392 194.468 25.832 197.092 25.832C199.716 25.832 202.084 26.392 204.196 27.512C206.308 28.632 207.972 30.248 209.188 32.36C210.404 34.44 211.012 36.856 211.012 39.608C211.012 42.36 210.388 44.792 209.14 46.904C207.924 48.984 206.244 50.584 204.1 51.704C201.988 52.824 199.62 53.384 196.996 53.384ZM196.996 46.28C198.564 46.28 199.892 45.704 200.98 44.552C202.1 43.4 202.66 41.752 202.66 39.608C202.66 37.464 202.116 35.816 201.028 34.664C199.972 33.512 198.66 32.936 197.092 32.936C195.492 32.936 194.164 33.512 193.108 34.664C192.052 35.784 191.524 37.432 191.524 39.608C191.524 41.752 192.036 43.4 193.06 44.552C194.116 45.704 195.428 46.28 196.996 46.28ZM231.735 53L223.575 41.768V53H215.367V17.48H223.575V37.112L231.687 26.216H241.815L230.679 39.656L241.911 53H231.735ZM379.058 25.832C380.946 25.832 382.594 26.216 384.002 26.984C385.442 27.752 386.546 28.76 387.314 30.008V26.216H395.522V52.952C395.522 55.416 395.026 57.64 394.034 59.624C393.074 61.64 391.586 63.24 389.57 64.424C387.586 65.608 385.106 66.2 382.13 66.2C378.162 66.2 374.946 65.256 372.482 63.368C370.018 61.512 368.61 58.984 368.258 55.784H376.37C376.626 56.808 377.234 57.608 378.194 58.184C379.154 58.792 380.338 59.096 381.746 59.096C383.442 59.096 384.786 58.6 385.778 57.608C386.802 56.648 387.314 55.096 387.314 52.952V49.16C386.514 50.408 385.41 51.432 384.002 52.232C382.594 53 380.946 53.384 379.058 53.384C376.85 53.384 374.85 52.824 373.058 51.704C371.266 50.552 369.842 48.936 368.786 46.856C367.762 44.744 367.25 42.312 367.25 39.56C367.25 36.808 367.762 34.392 368.786 32.312C369.842 30.232 371.266 28.632 373.058 27.512C374.85 26.392 376.85 25.832 379.058 25.832ZM387.314 39.608C387.314 37.56 386.738 35.944 385.586 34.76C384.466 33.576 383.09 32.984 381.458 32.984C379.826 32.984 378.434 33.576 377.282 34.76C376.162 35.912 375.602 37.512 375.602 39.56C375.602 41.608 376.162 43.24 377.282 44.456C378.434 45.64 379.826 46.232 381.458 46.232C383.09 46.232 384.466 45.64 385.586 44.456C386.738 43.272 387.314 41.656 387.314 39.608Z" fill="#217BE4"/>
<path d="M269.375 39.896H261.023V48.44H253.247V39.896H244.895V32.552H253.247V23.96H261.023V32.552H269.375V39.896ZM471.303 53.336C468.135 53.336 465.223 52.6 462.567 51.128C459.943 49.656 457.847 47.608 456.279 44.984C454.743 42.328 453.975 39.352 453.975 36.056C453.975 32.76 454.743 29.8 456.279 27.176C457.847 24.552 459.943 22.504 462.567 21.032C465.223 19.56 468.135 18.824 471.303 18.824C474.471 18.824 477.367 19.56 479.991 21.032C482.647 22.504 484.727 24.552 486.231 27.176C487.767 29.8 488.535 32.76 488.535 36.056C488.535 39.352 487.767 42.328 486.231 44.984C484.695 47.608 482.615 49.656 479.991 51.128C477.367 52.6 474.471 53.336 471.303 53.336ZM471.303 45.848C473.991 45.848 476.135 44.952 477.735 43.16C479.367 41.368 480.183 39 480.183 36.056C480.183 33.08 479.367 30.712 477.735 28.952C476.135 27.16 473.991 26.264 471.303 26.264C468.583 26.264 466.407 27.144 464.775 28.904C463.175 30.664 462.375 33.048 462.375 36.056C462.375 39.032 463.175 41.416 464.775 43.208C466.407 44.968 468.583 45.848 471.303 45.848ZM514.077 47.048H501.501L499.485 53H490.893L503.085 19.304H512.589L524.781 53H516.093L514.077 47.048ZM511.965 40.712L507.789 28.376L503.661 40.712H511.965ZM554.94 26.216V53H546.732V49.352C545.9 50.536 544.764 51.496 543.324 52.232C541.916 52.936 540.348 53.288 538.62 53.288C536.572 53.288 534.764 52.84 533.196 51.944C531.628 51.016 530.412 49.688 529.548 47.96C528.684 46.232 528.252 44.2 528.252 41.864V26.216H536.412V40.76C536.412 42.552 536.876 43.944 537.804 44.936C538.732 45.928 539.98 46.424 541.548 46.424C543.148 46.424 544.412 45.928 545.34 44.936C546.268 43.944 546.732 42.552 546.732 40.76V26.216H554.94ZM575.763 46.04V53H571.587C568.611 53 566.291 52.28 564.627 50.84C562.963 49.368 562.131 46.984 562.131 43.688V33.032H558.867V26.216H562.131V19.688H570.339V26.216H575.715V33.032H570.339V43.784C570.339 44.584 570.531 45.16 570.915 45.512C571.299 45.864 571.939 46.04 572.835 46.04H575.763ZM596.799 25.928C599.871 25.928 602.335 26.952 604.191 29C606.047 31.016 606.975 33.8 606.975 37.352V53H598.815V38.456C598.815 36.664 598.351 35.272 597.423 34.28C596.495 33.288 595.247 32.792 593.679 32.792C592.111 32.792 590.863 33.288 589.935 34.28C589.007 35.272 588.543 36.664 588.543 38.456V53H580.335V17.48H588.543V29.816C589.375 28.632 590.511 27.688 591.951 26.984C593.391 26.28 595.007 25.928 596.799 25.928Z" fill="#545454"/>
<path d="M285.355 25.832C287.243 25.832 288.891 26.216 290.299 26.984C291.739 27.752 292.843 28.76 293.611 30.008V26.216H301.819V52.952C301.819 55.416 301.323 57.64 300.331 59.624C299.371 61.64 297.883 63.24 295.867 64.424C293.883 65.608 291.403 66.2 288.427 66.2C284.459 66.2 281.243 65.256 278.779 63.368C276.315 61.512 274.907 58.984 274.555 55.784H282.667C282.923 56.808 283.531 57.608 284.491 58.184C285.451 58.792 286.635 59.096 288.043 59.096C289.739 59.096 291.083 58.6 292.075 57.608C293.099 56.648 293.611 55.096 293.611 52.952V49.16C292.811 50.408 291.707 51.432 290.299 52.232C288.891 53 287.243 53.384 285.355 53.384C283.147 53.384 281.147 52.824 279.355 51.704C277.563 50.552 276.139 48.936 275.083 46.856C274.059 44.744 273.547 42.312 273.547 39.56C273.547 36.808 274.059 34.392 275.083 32.312C276.139 30.232 277.563 28.632 279.355 27.512C281.147 26.392 283.147 25.832 285.355 25.832ZM293.611 39.608C293.611 37.56 293.035 35.944 291.883 34.76C290.763 33.576 289.387 32.984 287.755 32.984C286.123 32.984 284.731 33.576 283.579 34.76C282.459 35.912 281.899 37.512 281.899 39.56C281.899 41.608 282.459 43.24 283.579 44.456C284.731 45.64 286.123 46.232 287.755 46.232C289.387 46.232 290.763 45.64 291.883 44.456C293.035 43.272 293.611 41.656 293.611 39.608Z" fill="#217BE4"/>
<path d="M319.949 53.384C317.325 53.384 314.957 52.824 312.845 51.704C310.765 50.584 309.117 48.984 307.901 46.904C306.717 44.824 306.125 42.392 306.125 39.608C306.125 36.856 306.733 34.44 307.949 32.36C309.165 30.248 310.829 28.632 312.941 27.512C315.053 26.392 317.421 25.832 320.045 25.832C322.669 25.832 325.037 26.392 327.149 27.512C329.261 28.632 330.925 30.248 332.141 32.36C333.357 34.44 333.965 36.856 333.965 39.608C333.965 42.36 333.341 44.792 332.093 46.904C330.877 48.984 329.197 50.584 327.053 51.704C324.941 52.824 322.573 53.384 319.949 53.384ZM319.949 46.28C321.517 46.28 322.845 45.704 323.933 44.552C325.053 43.4 325.613 41.752 325.613 39.608C325.613 37.464 325.069 35.816 323.981 34.664C322.925 33.512 321.613 32.936 320.045 32.936C318.445 32.936 317.117 33.512 316.061 34.664C315.005 35.784 314.477 37.432 314.477 39.608C314.477 41.752 314.989 43.4 316.013 44.552C317.069 45.704 318.381 46.28 319.949 46.28ZM440.865 39.176C440.865 39.944 440.817 40.744 440.721 41.576H422.145C422.273 43.24 422.801 44.52 423.729 45.416C424.689 46.28 425.857 46.712 427.233 46.712C429.281 46.712 430.705 45.848 431.505 44.12H440.241C439.793 45.88 438.977 47.464 437.793 48.872C436.641 50.28 435.185 51.384 433.425 52.184C431.665 52.984 429.697 53.384 427.521 53.384C424.897 53.384 422.561 52.824 420.513 51.704C418.465 50.584 416.865 48.984 415.713 46.904C414.561 44.824 413.985 42.392 413.985 39.608C413.985 36.824 414.545 34.392 415.665 32.312C416.817 30.232 418.417 28.632 420.465 27.512C422.513 26.392 424.865 25.832 427.521 25.832C430.113 25.832 432.417 26.376 434.433 27.464C436.449 28.552 438.017 30.104 439.137 32.12C440.289 34.136 440.865 36.488 440.865 39.176ZM432.465 37.016C432.465 35.608 431.985 34.488 431.025 33.656C430.065 32.824 428.865 32.408 427.425 32.408C426.049 32.408 424.881 32.808 423.921 33.608C422.993 34.408 422.417 35.544 422.193 37.016H432.465Z" fill="#C60808"/>
<path d="M350.512 53.384C347.888 53.384 345.52 52.824 343.408 51.704C341.328 50.584 339.68 48.984 338.464 46.904C337.28 44.824 336.688 42.392 336.688 39.608C336.688 36.856 337.296 34.44 338.512 32.36C339.728 30.248 341.392 28.632 343.504 27.512C345.616 26.392 347.984 25.832 350.608 25.832C353.232 25.832 355.6 26.392 357.712 27.512C359.824 28.632 361.488 30.248 362.704 32.36C363.92 34.44 364.528 36.856 364.528 39.608C364.528 42.36 363.904 44.792 362.656 46.904C361.44 48.984 359.76 50.584 357.616 51.704C355.504 52.824 353.136 53.384 350.512 53.384ZM350.512 46.28C352.08 46.28 353.408 45.704 354.496 44.552C355.616 43.4 356.176 41.752 356.176 39.608C356.176 37.464 355.632 35.816 354.544 34.664C353.488 33.512 352.176 32.936 350.608 32.936C349.008 32.936 347.68 33.512 346.624 34.664C345.568 35.784 345.04 37.432 345.04 39.608C345.04 41.752 345.552 43.4 346.576 44.552C347.632 45.704 348.944 46.28 350.512 46.28Z" fill="#D7B22F"/>
<path d="M409.668 17.48V53H401.46V17.48H409.668Z" fill="#08C649"/>
</svg>
